<svg xmlns="http://www.w3.org/2000/svg" xmlns:xlink="http://www.w3.org/1999/xlink" version="1.1" class="marks" width="728" height="420" viewBox="0 0 728 420"><g fill="none" stroke-miterlimit="10" transform="translate(114,39)"><g class="mark-group role-frame root" role="graphics-object" aria-roledescription="group mark container"><g transform="translate(0,0)"><path class="background" aria-hidden="true" d="M0,0h609v352h-609Z"/><g><g class="mark-group role-axis" aria-hidden="true"><g transform="translate(0.5,0.5)"><path class="background" aria-hidden="true" d="M0,0h0v0h0Z" pointer-events="none"/><g><g class="mark-rule role-axis-grid" pointer-events="none"><line transform="translate(0,352)" x2="609" y2="0" stroke="#d6e4f7" stroke-width="1" stroke-dasharray="" opacity="1"/><line transform="translate(0,293)" x2="609" y2="0" stroke="#d6e4f7" stroke-width="1" stroke-dasharray="" opacity="1"/><line transform="translate(0,235)" x2="609" y2="0" stroke="#d6e4f7" stroke-width="1" stroke-dasharray="" opacity="1"/><line transform="translate(0,176)" x2="609" y2="0" stroke="#d6e4f7" stroke-width="1" stroke-dasharray="" opacity="1"/><line transform="translate(0,117)" x2="609" y2="0" stroke="#d6e4f7" stroke-width="1" stroke-dasharray="" opacity="1"/><line transform="translate(0,59)" x2="609" y2="0" stroke="#d6e4f7" stroke-width="1" stroke-dasharray="" opacity="1"/><line transform="translate(0,0)" x2="609" y2="0" stroke="#d6e4f7" stroke-width="1" stroke-dasharray="" opacity="1"/></g></g><path class="foreground" aria-hidden="true" d="" pointer-events="none" display="none"/></g></g><g class="mark-group role-axis" role="graphics-symbol" aria-roledescription="axis" aria-label="X-axis for a discrete scale with 8 values: Apr, Aug, Feb, Jan, Jul, ending with May"><g transform="translate(0.5,352.5)"><path class="background" aria-hidden="true" d="M0,0h0v0h0Z" pointer-events="none"/><g><g class="mark-text role-axis-label" pointer-events="none"><text text-anchor="middle" transform="translate(38.0625,21)" font-family="system-ui, -apple-system, sans-serif" font-size="16px" fill="#5d7290" opacity="1">Apr</text><text text-anchor="middle" transform="translate(114.1875,21)" font-family="system-ui, -apple-system, sans-serif" font-size="16px" fill="#5d7290" opacity="1">Aug</text><text text-anchor="middle" transform="translate(190.3125,21)" font-family="system-ui, -apple-system, sans-serif" font-size="16px" fill="#5d7290" opacity="1">Feb</text><text text-anchor="middle" transform="translate(266.4375,21)" font-family="system-ui, -apple-system, sans-serif" font-size="16px" fill="#5d7290" opacity="1">Jan</text><text text-anchor="middle" transform="translate(342.5625,21)" font-family="system-ui, -apple-system, sans-serif" font-size="16px" fill="#5d7290" opacity="1">Jul</text><text text-anchor="middle" transform="translate(418.6875,21)" font-family="system-ui, -apple-system, sans-serif" font-size="16px" fill="#5d7290" opacity="1">Jun</text><text text-anchor="middle" transform="translate(494.8125,21)" font-family="system-ui, -apple-system, sans-serif" font-size="16px" fill="#5d7290" opacity="1">Mar</text><text text-anchor="middle" transform="translate(570.9375,21)" font-family="system-ui, -apple-system, sans-serif" font-size="16px" fill="#5d7290" opacity="1">May</text></g><g class="mark-rule role-axis-domain" pointer-events="none"><line transform="translate(0,0)" x2="609" y2="0" stroke="#273763" stroke-width="1" opacity="1"/></g></g><path class="foreground" aria-hidden="true" d="" pointer-events="none" display="none"/></g></g><g class="mark-group role-axis" role="graphics-symbol" aria-roledescription="axis" aria-label="Y-axis titled 'Users' for a linear scale with values from 0 to 12,000"><g transform="translate(0.5,0.5)"><path class="background" aria-hidden="true" d="M0,0h0v0h0Z" pointer-events="none"/><g><g class="mark-rule role-axis-tick" pointer-events="none"><line transform="translate(0,352)" x2="-5" y2="0" stroke="#273763" stroke-width="1" opacity="1"/><line transform="translate(0,293)" x2="-5" y2="0" stroke="#273763" stroke-width="1" opacity="1"/><line transform="translate(0,235)" x2="-5" y2="0" stroke="#273763" stroke-width="1" opacity="1"/><line transform="translate(0,176)" x2="-5" y2="0" stroke="#273763" stroke-width="1" opacity="1"/><line transform="translate(0,117)" x2="-5" y2="0" stroke="#273763" stroke-width="1" opacity="1"/><line transform="translate(0,59)" x2="-5" y2="0" stroke="#273763" stroke-width="1" opacity="1"/><line transform="translate(0,0)" x2="-5" y2="0" stroke="#273763" stroke-width="1" opacity="1"/></g><g class="mark-text role-axis-label" pointer-events="none"><text text-anchor="end" transform="translate(-13,357)" font-family="system-ui, -apple-system, sans-serif" font-size="16px" fill="#5d7290" opacity="1">0</text><text text-anchor="end" transform="translate(-13,298.33333333333337)" font-family="system-ui, -apple-system, sans-serif" font-size="16px" fill="#5d7290" opacity="1">2,000</text><text text-anchor="end" transform="translate(-13,239.66666666666669)" font-family="system-ui, -apple-system, sans-serif" font-size="16px" fill="#5d7290" opacity="1">4,000</text><text text-anchor="end" transform="translate(-13,181)" font-family="system-ui, -apple-system, sans-serif" font-size="16px" fill="#5d7290" opacity="1">6,000</text><text text-anchor="end" transform="translate(-13,122.33333333333334)" font-family="system-ui, -apple-system, sans-serif" font-size="16px" fill="#5d7290" opacity="1">8,000</text><text text-anchor="end" transform="translate(-13,63.66666666666666)" font-family="system-ui, -apple-system, sans-serif" font-size="16px" fill="#5d7290" opacity="1">10,000</text><text text-anchor="end" transform="translate(-13,5)" font-family="system-ui, -apple-system, sans-serif" font-size="16px" fill="#5d7290" opacity="1">12,000</text></g><g class="mark-rule role-axis-domain" pointer-events="none"><line transform="translate(0,352)" x2="0" y2="-352" stroke="#273763" stroke-width="1" opacity="1"/></g><g class="mark-text role-axis-title" pointer-events="none"><text text-anchor="middle" transform="translate(-93,176) rotate(-90) translate(0,-3)" font-family="system-ui, -apple-system, sans-serif" font-size="16px" font-weight="500" fill="#273763" opacity="1">Users</text></g></g><path class="foreground" aria-hidden="true" d="" pointer-events="none" display="none"/></g></g><g class="mark-line role-mark layer_0_layer_0_marks" role="graphics-object" aria-roledescription="line mark container"><path aria-label="month: Apr; Users: 4100" role="graphics-symbol" aria-roledescription="line mark" d="M38.063,231.733L114.188,46.933L190.313,299.2L266.438,316.8L342.563,90.933L418.688,140.8L494.813,266.933L570.938,181.867" stroke="#4d93e5" stroke-width="2"/></g><g class="mark-symbol role-mark layer_0_layer_1_marks" role="graphics-object" aria-roledescription="symbol mark container"><path aria-label="month: Jan; Users: 1200" role="graphics-symbol" aria-roledescription="point" transform="translate(266.4375,316.8)" d="M3.354,0A3.354,3.354,0,1,1,-3.354,0A3.354,3.354,0,1,1,3.354,0" fill="#f5f8fc" stroke="#4d93e5" stroke-width="2" opacity="1"/><path aria-label="month: Feb; Users: 1800" role="graphics-symbol" aria-roledescription="point" transform="translate(190.3125,299.2)" d="M3.354,0A3.354,3.354,0,1,1,-3.354,0A3.354,3.354,0,1,1,3.354,0" fill="#f5f8fc" stroke="#4d93e5" stroke-width="2" opacity="1"/><path aria-label="month: Mar; Users: 2900" role="graphics-symbol" aria-roledescription="point" transform="translate(494.8125,266.93333333333334)" d="M3.354,0A3.354,3.354,0,1,1,-3.354,0A3.354,3.354,0,1,1,3.354,0" fill="#f5f8fc" stroke="#4d93e5" stroke-width="2" opacity="1"/><path aria-label="month: Apr; Users: 4100" role="graphics-symbol" aria-roledescription="point" transform="translate(38.0625,231.73333333333332)" d="M3.354,0A3.354,3.354,0,1,1,-3.354,0A3.354,3.354,0,1,1,3.354,0" fill="#f5f8fc" stroke="#4d93e5" stroke-width="2" opacity="1"/><path aria-label="month: May; Users: 5800" role="graphics-symbol" aria-roledescription="point" transform="translate(570.9375,181.86666666666665)" d="M3.354,0A3.354,3.354,0,1,1,-3.354,0A3.354,3.354,0,1,1,3.354,0" fill="#f5f8fc" stroke="#4d93e5" stroke-width="2" opacity="1"/><path aria-label="month: Jun; Users: 7200" role="graphics-symbol" aria-roledescription="point" transform="translate(418.6875,140.8)" d="M3.354,0A3.354,3.354,0,1,1,-3.354,0A3.354,3.354,0,1,1,3.354,0" fill="#f5f8fc" stroke="#4d93e5" stroke-width="2" opacity="1"/><path aria-label="month: Jul; Users: 8900" role="graphics-symbol" aria-roledescription="point" transform="translate(342.5625,90.93333333333332)" d="M3.354,0A3.354,3.354,0,1,1,-3.354,0A3.354,3.354,0,1,1,3.354,0" fill="#f5f8fc" stroke="#4d93e5" stroke-width="2" opacity="1"/><path aria-label="month: Aug; Users: 10400" role="graphics-symbol" aria-roledescription="point" transform="translate(114.1875,46.93333333333332)" d="M3.354,0A3.354,3.354,0,1,1,-3.354,0A3.354,3.354,0,1,1,3.354,0" fill="#f5f8fc" stroke="#4d93e5" stroke-width="2" opacity="1"/></g><g class="mark-text role-mark layer_1_marks" role="graphics-object" aria-roledescription="text mark container"><text aria-label="month: Jan; Users: 1200; users: 1,200" role="graphics-symbol" aria-roledescription="text mark" text-anchor="middle" transform="translate(266.4375,303.8)" font-family="system-ui, -apple-system, sans-serif" font-size="14px" font-weight="500" fill="#273763">1,200</text><text aria-label="month: Feb; Users: 1800; users: 1,800" role="graphics-symbol" aria-roledescription="text mark" text-anchor="middle" transform="translate(190.3125,286.2)" font-family="system-ui, -apple-system, sans-serif" font-size="14px" font-weight="500" fill="#273763">1,800</text><text aria-label="month: Mar; Users: 2900; users: 2,900" role="graphics-symbol" aria-roledescription="text mark" text-anchor="middle" transform="translate(494.8125,253.93333333333334)" font-family="system-ui, -apple-system, sans-serif" font-size="14px" font-weight="500" fill="#273763">2,900</text><text aria-label="month: Apr; Users: 4100; users: 4,100" role="graphics-symbol" aria-roledescription="text mark" text-anchor="middle" transform="translate(38.0625,218.73333333333332)" font-family="system-ui, -apple-system, sans-serif" font-size="14px" font-weight="500" fill="#273763">4,100</text><text aria-label="month: May; Users: 5800; users: 5,800" role="graphics-symbol" aria-roledescription="text mark" text-anchor="middle" transform="translate(570.9375,168.86666666666665)" font-family="system-ui, -apple-system, sans-serif" font-size="14px" font-weight="500" fill="#273763">5,800</text><text aria-label="month: Jun; Users: 7200; users: 7,200" role="graphics-symbol" aria-roledescription="text mark" text-anchor="middle" transform="translate(418.6875,127.80000000000001)" font-family="system-ui, -apple-system, sans-serif" font-size="14px" font-weight="500" fill="#273763">7,200</text><text aria-label="month: Jul; Users: 8900; users: 8,900" role="graphics-symbol" aria-roledescription="text mark" text-anchor="middle" transform="translate(342.5625,77.93333333333332)" font-family="system-ui, -apple-system, sans-serif" font-size="14px" font-weight="500" fill="#273763">8,900</text><text aria-label="month: Aug; Users: 10400; users: 10,400" role="graphics-symbol" aria-roledescription="text mark" text-anchor="middle" transform="translate(114.1875,33.93333333333332)" font-family="system-ui, -apple-system, sans-serif" font-size="14px" font-weight="500" fill="#273763">10,400</text></g><g class="axis-domain-overlay"><g transform="translate(0.5,352.5)"><g class="mark-rule role-axis-domain" pointer-events="none"><line transform="translate(0,0)" x2="609" y2="0" stroke="#273763" stroke-width="1" opacity="1"/></g></g><g transform="translate(0.5,0.5)"><g class="mark-rule role-axis-domain" pointer-events="none"><line transform="translate(0,352)" x2="0" y2="-352" stroke="#273763" stroke-width="1" opacity="1"/></g></g></g><g class="mark-group role-title"><g transform="translate(-109,-34)"><path class="background" aria-hidden="true" d="M0,0h0v0h0Z" pointer-events="none"/><g><g class="mark-text role-title-text" role="graphics-symbol" aria-roledescription="title" aria-label="Title text 'Monthly Active Users'" pointer-events="none"><text text-anchor="start" transform="translate(0,13)" font-family="system-ui, -apple-system, sans-serif" font-size="16px" font-weight="500" fill="#273763" opacity="1">Monthly Active Users</text></g></g><path class="foreground" aria-hidden="true" d="" pointer-events="none" display="none"/></g></g></g><path class="foreground" aria-hidden="true" d="" display="none"/></g></g></g></svg>