<svg xmlns="http://www.w3.org/2000/svg" xmlns:xlink="http://www.w3.org/1999/xlink" version="1.1" class="marks" width="728" height="420" viewBox="0 0 728 420"><g fill="none" stroke-miterlimit="10" transform="translate(114,39)"><g class="mark-group role-frame root" role="graphics-object" aria-roledescription="group mark container"><g transform="translate(0,0)"><path class="background" aria-hidden="true" d="M0,0h609v288h-609Z"/><g><g class="mark-group role-axis" aria-hidden="true"><g transform="translate(0.5,0.5)"><path class="background" aria-hidden="true" d="M0,0h0v0h0Z" pointer-events="none"/><g><g class="mark-rule role-axis-grid" pointer-events="none"><line transform="translate(0,288)" x2="609" y2="0" stroke="#e0e0e0" stroke-width="1" stroke-dasharray="" opacity="1"/><line transform="translate(0,240)" x2="609" y2="0" stroke="#e0e0e0" stroke-width="1" stroke-dasharray="" opacity="1"/><line transform="translate(0,192)" x2="609" y2="0" stroke="#e0e0e0" stroke-width="1" stroke-dasharray="" opacity="1"/><line transform="translate(0,144)" x2="609" y2="0" stroke="#e0e0e0" stroke-width="1" stroke-dasharray="" opacity="1"/><line transform="translate(0,96)" x2="609" y2="0" stroke="#e0e0e0" stroke-width="1" stroke-dasharray="" opacity="1"/><line transform="translate(0,48)" x2="609" y2="0" stroke="#e0e0e0" stroke-width="1" stroke-dasharray="" opacity="1"/><line transform="translate(0,0)" x2="609" y2="0" stroke="#e0e0e0" stroke-width="1" stroke-dasharray="" opacity="1"/></g></g><path class="foreground" aria-hidden="true" d="" pointer-events="none" display="none"/></g></g><g class="mark-group role-axis" role="graphics-symbol" aria-roledescription="axis" aria-label="X-axis for a discrete scale with 5 values: Apr, Feb, Jan, Mar, May"><g transform="translate(0.5,288.5)"><path class="background" aria-hidden="true" d="M0,0h0v0h0Z" pointer-events="none"/><g><g class="mark-text role-axis-label" pointer-events="none"><text text-anchor="middle" transform="translate(60.900000000000006,21)" font-family="system-ui, -apple-system, sans-serif" font-size="16px" fill="#636363" opacity="1">Apr</text><text text-anchor="middle" transform="translate(182.7,21)" font-family="system-ui, -apple-system, sans-serif" font-size="16px" fill="#636363" opacity="1">Feb</text><text text-anchor="middle" transform="translate(304.5,21)" font-family="system-ui, -apple-system, sans-serif" font-size="16px" fill="#636363" opacity="1">Jan</text><text text-anchor="middle" transform="translate(426.29999999999995,21)" font-family="system-ui, -apple-system, sans-serif" font-size="16px" fill="#636363" opacity="1">Mar</text><text text-anchor="middle" transform="translate(548.1,21)" font-family="system-ui, -apple-system, sans-serif" font-size="16px" fill="#636363" opacity="1">May</text></g><g class="mark-rule role-axis-domain" pointer-events="none"><line transform="translate(0,0)" x2="609" y2="0" stroke="#1d1d1d" stroke-width="1" opacity="1"/></g></g><path class="foreground" aria-hidden="true" d="" pointer-events="none" display="none"/></g></g><g class="mark-group role-axis" role="graphics-symbol" aria-roledescription="axis" aria-label="Y-axis titled 'Visits' for a linear scale with values from 0 to 30,000"><g transform="translate(0.5,0.5)"><path class="background" aria-hidden="true" d="M0,0h0v0h0Z" pointer-events="none"/><g><g class="mark-rule role-axis-tick" pointer-events="none"><line transform="translate(0,288)" x2="-5" y2="0" stroke="#1d1d1d" stroke-width="1" opacity="1"/><line transform="translate(0,240)" x2="-5" y2="0" stroke="#1d1d1d" stroke-width="1" opacity="1"/><line transform="translate(0,192)" x2="-5" y2="0" stroke="#1d1d1d" stroke-width="1" opacity="1"/><line transform="translate(0,144)" x2="-5" y2="0" stroke="#1d1d1d" stroke-width="1" opacity="1"/><line transform="translate(0,96)" x2="-5" y2="0" stroke="#1d1d1d" stroke-width="1" opacity="1"/><line transform="translate(0,48)" x2="-5" y2="0" stroke="#1d1d1d" stroke-width="1" opacity="1"/><line transform="translate(0,0)" x2="-5" y2="0" stroke="#1d1d1d" stroke-width="1" opacity="1"/></g><g class="mark-text role-axis-label" pointer-events="none"><text text-anchor="end" transform="translate(-13,293)" font-family="system-ui, -apple-system, sans-serif" font-size="16px" fill="#636363" opacity="1">0</text><text text-anchor="end" transform="translate(-13,245)" font-family="system-ui, -apple-system, sans-serif" font-size="16px" fill="#636363" opacity="1">5,000</text><text text-anchor="end" transform="translate(-13,197.00000000000003)" font-family="system-ui, -apple-system, sans-serif" font-size="16px" fill="#636363" opacity="1">10,000</text><text text-anchor="end" transform="translate(-13,149)" font-family="system-ui, -apple-system, sans-serif" font-size="16px" fill="#636363" opacity="1">15,000</text><text text-anchor="end" transform="translate(-13,101.00000000000001)" font-family="system-ui, -apple-system, sans-serif" font-size="16px" fill="#636363" opacity="1">20,000</text><text text-anchor="end" transform="translate(-13,52.999999999999986)" font-family="system-ui, -apple-system, sans-serif" font-size="16px" fill="#636363" opacity="1">25,000</text><text text-anchor="end" transform="translate(-13,5)" font-family="system-ui, -apple-system, sans-serif" font-size="16px" fill="#636363" opacity="1">30,000</text></g><g class="mark-rule role-axis-domain" pointer-events="none"><line transform="translate(0,288)" x2="0" y2="-288" stroke="#1d1d1d" stroke-width="1" opacity="1"/></g><g class="mark-text role-axis-title" pointer-events="none"><text text-anchor="middle" transform="translate(-93,144) rotate(-90) translate(0,-3)" font-family="system-ui, -apple-system, sans-serif" font-size="16px" font-weight="500" fill="#1d1d1d" opacity="1">Visits</text></g></g><path class="foreground" aria-hidden="true" d="" pointer-events="none" display="none"/></g></g><g class="mark-group role-scope layer_0_pathgroup" role="graphics-object" aria-roledescription="group mark container"><g transform="translate(0,0)"><path class="background" aria-hidden="true" d="M0,0h609v288h-609Z"/><g><g class="mark-line role-mark layer_0_marks" role="graphics-object" aria-roledescription="line mark container"><path aria-label="month: Apr; Visits: 24000; Channel: Organic" role="graphics-symbol" aria-roledescription="line mark" d="M60.9,57.6L182.7,144L304.5,172.8L426.3,105.6L548.1,19.2" stroke="#E3120B" stroke-width="2"/></g></g><path class="foreground" aria-hidden="true" d="" display="none"/></g><g transform="translate(0,0)"><path class="background" aria-hidden="true" d="M0,0h609v288h-609Z"/><g><g class="mark-line role-mark layer_0_marks" role="graphics-object" aria-roledescription="line mark container"><path aria-label="month: Apr; Visits: 10000; Channel: Paid" role="graphics-symbol" aria-roledescription="line mark" d="M60.9,192L182.7,196.8L304.5,211.2L426.3,182.4L548.1,172.8" stroke="#0D6AB0" stroke-width="2"/></g></g><path class="foreground" aria-hidden="true" d="" display="none"/></g><g transform="translate(0,0)"><path class="background" aria-hidden="true" d="M0,0h609v288h-609Z"/><g><g class="mark-line role-mark layer_0_marks" role="graphics-object" aria-roledescription="line mark container"><path aria-label="month: Apr; Visits: 6800; Channel: Referral" role="graphics-symbol" aria-roledescription="line mark" d="M60.9,222.72L182.7,247.68L304.5,259.2L426.3,239.04L548.1,206.4" stroke="#2A9D8F" stroke-width="2"/></g></g><path class="foreground" aria-hidden="true" d="" display="none"/></g></g><g class="mark-symbol role-mark layer_1_marks" role="graphics-object" aria-roledescription="symbol mark container"><path aria-label="month: Jan; Visits: 12000; Channel: Organic" role="graphics-symbol" aria-roledescription="point" transform="translate(304.5,172.79999999999998)" d="M3.354,0A3.354,3.354,0,1,1,-3.354,0A3.354,3.354,0,1,1,3.354,0" fill="#f7f5f2" stroke="#E3120B" stroke-width="2" opacity="1"/><path aria-label="month: Feb; Visits: 15000; Channel: Organic" role="graphics-symbol" aria-roledescription="point" transform="translate(182.7,144)" d="M3.354,0A3.354,3.354,0,1,1,-3.354,0A3.354,3.354,0,1,1,3.354,0" fill="#f7f5f2" stroke="#E3120B" stroke-width="2" opacity="1"/><path aria-label="month: Mar; Visits: 19000; Channel: Organic" role="graphics-symbol" aria-roledescription="point" transform="translate(426.29999999999995,105.60000000000001)" d="M3.354,0A3.354,3.354,0,1,1,-3.354,0A3.354,3.354,0,1,1,3.354,0" fill="#f7f5f2" stroke="#E3120B" stroke-width="2" opacity="1"/><path aria-label="month: Apr; Visits: 24000; Channel: Organic" role="graphics-symbol" aria-roledescription="point" transform="translate(60.900000000000006,57.59999999999999)" d="M3.354,0A3.354,3.354,0,1,1,-3.354,0A3.354,3.354,0,1,1,3.354,0" fill="#f7f5f2" stroke="#E3120B" stroke-width="2" opacity="1"/><path aria-label="month: May; Visits: 28000; Channel: Organic" role="graphics-symbol" aria-roledescription="point" transform="translate(548.1,19.199999999999996)" d="M3.354,0A3.354,3.354,0,1,1,-3.354,0A3.354,3.354,0,1,1,3.354,0" fill="#f7f5f2" stroke="#E3120B" stroke-width="2" opacity="1"/><path aria-label="month: Jan; Visits: 8000; Channel: Paid" role="graphics-symbol" aria-roledescription="point" transform="translate(304.5,211.20000000000002)" d="M3.354,0A3.354,3.354,0,1,1,-3.354,0A3.354,3.354,0,1,1,3.354,0" fill="#f7f5f2" stroke="#0D6AB0" stroke-width="2" opacity="1"/><path aria-label="month: Feb; Visits: 9500; Channel: Paid" role="graphics-symbol" aria-roledescription="point" transform="translate(182.7,196.8)" d="M3.354,0A3.354,3.354,0,1,1,-3.354,0A3.354,3.354,0,1,1,3.354,0" fill="#f7f5f2" stroke="#0D6AB0" stroke-width="2" opacity="1"/><path aria-label="month: Mar; Visits: 11000; Channel: Paid" role="graphics-symbol" aria-roledescription="point" transform="translate(426.29999999999995,182.39999999999998)" d="M3.354,0A3.354,3.354,0,1,1,-3.354,0A3.354,3.354,0,1,1,3.354,0" fill="#f7f5f2" stroke="#0D6AB0" stroke-width="2" opacity="1"/><path aria-label="month: Apr; Visits: 10000; Channel: Paid" role="graphics-symbol" aria-roledescription="point" transform="translate(60.900000000000006,192.00000000000003)" d="M3.354,0A3.354,3.354,0,1,1,-3.354,0A3.354,3.354,0,1,1,3.354,0" fill="#f7f5f2" stroke="#0D6AB0" stroke-width="2" opacity="1"/><path aria-label="month: May; Visits: 12000; Channel: Paid" role="graphics-symbol" aria-roledescription="point" transform="translate(548.1,172.79999999999998)" d="M3.354,0A3.354,3.354,0,1,1,-3.354,0A3.354,3.354,0,1,1,3.354,0" fill="#f7f5f2" stroke="#0D6AB0" stroke-width="2" opacity="1"/><path aria-label="month: Jan; Visits: 3000; Channel: Referral" role="graphics-symbol" aria-roledescription="point" transform="translate(304.5,259.2)" d="M3.354,0A3.354,3.354,0,1,1,-3.354,0A3.354,3.354,0,1,1,3.354,0" fill="#f7f5f2" stroke="#2A9D8F" stroke-width="2" opacity="1"/><path aria-label="month: Feb; Visits: 4200; Channel: Referral" role="graphics-symbol" aria-roledescription="point" transform="translate(182.7,247.68)" d="M3.354,0A3.354,3.354,0,1,1,-3.354,0A3.354,3.354,0,1,1,3.354,0" fill="#f7f5f2" stroke="#2A9D8F" stroke-width="2" opacity="1"/><path aria-label="month: Mar; Visits: 5100; Channel: Referral" role="graphics-symbol" aria-roledescription="point" transform="translate(426.29999999999995,239.04)" d="M3.354,0A3.354,3.354,0,1,1,-3.354,0A3.354,3.354,0,1,1,3.354,0" fill="#f7f5f2" stroke="#2A9D8F" stroke-width="2" opacity="1"/><path aria-label="month: Apr; Visits: 6800; Channel: Referral" role="graphics-symbol" aria-roledescription="point" transform="translate(60.900000000000006,222.72)" d="M3.354,0A3.354,3.354,0,1,1,-3.354,0A3.354,3.354,0,1,1,3.354,0" fill="#f7f5f2" stroke="#2A9D8F" stroke-width="2" opacity="1"/><path aria-label="month: May; Visits: 8500; Channel: Referral" role="graphics-symbol" aria-roledescription="point" transform="translate(548.1,206.4)" d="M3.354,0A3.354,3.354,0,1,1,-3.354,0A3.354,3.354,0,1,1,3.354,0" fill="#f7f5f2" stroke="#2A9D8F" stroke-width="2" opacity="1"/></g><g class="mark-group role-legend" role="graphics-symbol" aria-roledescription="legend" aria-label="Symbol legend titled 'Channel' for stroke color with 3 values: Organic, Paid, Referral"><g transform="translate(0,330)"><path class="background" aria-hidden="true" d="M0.5,0.5h330v45h-330Z" pointer-events="none"/><g><g class="mark-group role-legend-entry"><g transform="translate(4,25)"><path class="background" aria-hidden="true" d="M0,0h0v0h0Z" pointer-events="none"/><g><g class="mark-group role-scope" role="graphics-object" aria-roledescription="group mark container"><g transform="translate(0,0)"><path class="background" aria-hidden="true" d="M0,0h109v16h-109Z" pointer-events="none" opacity="1"/><g><g class="mark-symbol role-legend-symbol" pointer-events="none"><path transform="translate(8,8)" d="M5.477,0A5.477,5.477,0,1,1,-5.477,0A5.477,5.477,0,1,1,5.477,0" stroke="#E3120B" stroke-width="2" opacity="1"/></g><g class="mark-text role-legend-label" pointer-events="none"><text text-anchor="start" transform="translate(20,13)" font-family="system-ui, -apple-system, sans-serif" font-size="16px" fill="#636363" opacity="1">Organic</text></g></g><path class="foreground" aria-hidden="true" d="" pointer-events="none" display="none"/></g><g transform="translate(119,0)"><path class="background" aria-hidden="true" d="M0,0h71v16h-71Z" pointer-events="none" opacity="1"/><g><g class="mark-symbol role-legend-symbol" pointer-events="none"><path transform="translate(8,8)" d="M5.477,0A5.477,5.477,0,1,1,-5.477,0A5.477,5.477,0,1,1,5.477,0" stroke="#0D6AB0" stroke-width="2" opacity="1"/></g><g class="mark-text role-legend-label" pointer-events="none"><text text-anchor="start" transform="translate(20,13)" font-family="system-ui, -apple-system, sans-serif" font-size="16px" fill="#636363" opacity="1">Paid</text></g></g><path class="foreground" aria-hidden="true" d="" pointer-events="none" display="none"/></g><g transform="translate(200,0)"><path class="background" aria-hidden="true" d="M0,0h122v16h-122Z" pointer-events="none" opacity="1"/><g><g class="mark-symbol role-legend-symbol" pointer-events="none"><path transform="translate(8,8)" d="M5.477,0A5.477,5.477,0,1,1,-5.477,0A5.477,5.477,0,1,1,5.477,0" stroke="#2A9D8F" stroke-width="2" opacity="1"/></g><g class="mark-text role-legend-label" pointer-events="none"><text text-anchor="start" transform="translate(20,13)" font-family="system-ui, -apple-system, sans-serif" font-size="16px" fill="#636363" opacity="1">Referral</text></g></g><path class="foreground" aria-hidden="true" d="" pointer-events="none" display="none"/></g></g></g><path class="foreground" aria-hidden="true" d="" pointer-events="none" display="none"/></g></g><g class="mark-text role-legend-title" pointer-events="none"><text text-anchor="start" transform="translate(4,17)" font-family="system-ui, -apple-system, sans-serif" font-size="16px" font-weight="500" fill="#1d1d1d" opacity="1">Channel</text></g></g><path class="foreground" aria-hidden="true" d="" pointer-events="none" display="none"/></g></g><g class="axis-domain-overlay"><g transform="translate(0.5,288.5)"><g class="mark-rule role-axis-domain" pointer-events="none"><line transform="translate(0,0)" x2="609" y2="0" stroke="#1d1d1d" stroke-width="1" opacity="1"/></g></g><g transform="translate(0.5,0.5)"><g class="mark-rule role-axis-domain" pointer-events="none"><line transform="translate(0,288)" x2="0" y2="-288" stroke="#1d1d1d" stroke-width="1" opacity="1"/></g></g></g><g class="mark-group role-title"><g transform="translate(-109.00000000000001,-34)"><path class="background" aria-hidden="true" d="M0,0h0v0h0Z" pointer-events="none"/><g><g class="mark-text role-title-text" role="graphics-symbol" aria-roledescription="title" aria-label="Title text 'Traffic by Channel'" pointer-events="none"><text text-anchor="start" transform="translate(0,13)" font-family="system-ui, -apple-system, sans-serif" font-size="16px" font-weight="500" fill="#1d1d1d" opacity="1">Traffic by Channel</text></g></g><path class="foreground" aria-hidden="true" d="" pointer-events="none" display="none"/></g></g></g><path class="foreground" aria-hidden="true" d="" display="none"/></g></g></g></svg>