<svg xmlns="http://www.w3.org/2000/svg" xmlns:xlink="http://www.w3.org/1999/xlink" version="1.1" class="marks" width="728" height="420" viewBox="0 0 728 420"><g fill="none" stroke-miterlimit="10" transform="translate(50,39)"><g class="mark-group role-frame root" role="graphics-object" aria-roledescription="group mark container"><g transform="translate(0,0)"><path class="background" aria-hidden="true" d="M0,0h673v324h-673Z"/><g><g class="mark-group role-axis" aria-hidden="true"><g transform="translate(0.5,324.5)"><path class="background" aria-hidden="true" d="M0,0h0v0h0Z" pointer-events="none"/><g><g class="mark-rule role-axis-grid" pointer-events="none"><line transform="translate(0,-324)" x2="0" y2="324" stroke="#d6e4f7" stroke-width="1" stroke-dasharray="" opacity="1"/><line transform="translate(168,-324)" x2="0" y2="324" stroke="#d6e4f7" stroke-width="1" stroke-dasharray="" opacity="1"/><line transform="translate(337,-324)" x2="0" y2="324" stroke="#d6e4f7" stroke-width="1" stroke-dasharray="" opacity="1"/><line transform="translate(505,-324)" x2="0" y2="324" stroke="#d6e4f7" stroke-width="1" stroke-dasharray="" opacity="1"/><line transform="translate(673,-324)" x2="0" y2="324" stroke="#d6e4f7" stroke-width="1" stroke-dasharray="" opacity="1"/></g></g><path class="foreground" aria-hidden="true" d="" pointer-events="none" display="none"/></g></g><g class="mark-group role-axis" aria-hidden="true"><g transform="translate(0.5,0.5)"><path class="background" aria-hidden="true" d="M0,0h0v0h0Z" pointer-events="none"/><g><g class="mark-rule role-axis-grid" pointer-events="none"><line transform="translate(0,324)" x2="673" y2="0" stroke="#d6e4f7" stroke-width="1" stroke-dasharray="" opacity="1"/><line transform="translate(0,259)" x2="673" y2="0" stroke="#d6e4f7" stroke-width="1" stroke-dasharray="" opacity="1"/><line transform="translate(0,194)" x2="673" y2="0" stroke="#d6e4f7" stroke-width="1" stroke-dasharray="" opacity="1"/><line transform="translate(0,130)" x2="673" y2="0" stroke="#d6e4f7" stroke-width="1" stroke-dasharray="" opacity="1"/><line transform="translate(0,65)" x2="673" y2="0" stroke="#d6e4f7" stroke-width="1" stroke-dasharray="" opacity="1"/><line transform="translate(0,0)" x2="673" y2="0" stroke="#d6e4f7" stroke-width="1" stroke-dasharray="" opacity="1"/></g></g><path class="foreground" aria-hidden="true" d="" pointer-events="none" display="none"/></g></g><g class="mark-group role-axis" role="graphics-symbol" aria-roledescription="axis" aria-label="X-axis titled 'Session Length (min)' for a linear scale with values from 0 to 20"><g transform="translate(0.5,324.5)"><path class="background" aria-hidden="true" d="M0,0h0v0h0Z" pointer-events="none"/><g><g class="mark-text role-axis-label" pointer-events="none"><text text-anchor="start" transform="translate(0,21)" font-family="system-ui, -apple-system, sans-serif" font-size="16px" fill="#5d7290" opacity="1">0</text><text text-anchor="middle" transform="translate(168.25,21)" font-family="system-ui, -apple-system, sans-serif" font-size="16px" fill="#5d7290" opacity="1">5</text><text text-anchor="middle" transform="translate(336.5,21)" font-family="system-ui, -apple-system, sans-serif" font-size="16px" fill="#5d7290" opacity="1">10</text><text text-anchor="middle" transform="translate(504.75,21)" font-family="system-ui, -apple-system, sans-serif" font-size="16px" fill="#5d7290" opacity="1">15</text><text text-anchor="end" transform="translate(673,21)" font-family="system-ui, -apple-system, sans-serif" font-size="16px" fill="#5d7290" opacity="1">20</text></g><g class="mark-rule role-axis-domain" pointer-events="none"><line transform="translate(0,0)" x2="673" y2="0" stroke="#273763" stroke-width="1" opacity="1"/></g><g class="mark-text role-axis-title" pointer-events="none"><text text-anchor="middle" transform="translate(336.5,49)" font-family="system-ui, -apple-system, sans-serif" font-size="16px" font-weight="500" fill="#273763" opacity="1">Session Length (min)</text></g></g><path class="foreground" aria-hidden="true" d="" pointer-events="none" display="none"/></g></g><g class="mark-group role-axis" role="graphics-symbol" aria-roledescription="axis" aria-label="Y-axis titled 'Satisfaction Score' for a linear scale with values from 0 to 5"><g transform="translate(0.5,0.5)"><path class="background" aria-hidden="true" d="M0,0h0v0h0Z" pointer-events="none"/><g><g class="mark-rule role-axis-tick" pointer-events="none"><line transform="translate(0,324)" x2="-5" y2="0" stroke="#273763" stroke-width="1" opacity="1"/><line transform="translate(0,259)" x2="-5" y2="0" stroke="#273763" stroke-width="1" opacity="1"/><line transform="translate(0,194)" x2="-5" y2="0" stroke="#273763" stroke-width="1" opacity="1"/><line transform="translate(0,130)" x2="-5" y2="0" stroke="#273763" stroke-width="1" opacity="1"/><line transform="translate(0,65)" x2="-5" y2="0" stroke="#273763" stroke-width="1" opacity="1"/><line transform="translate(0,0)" x2="-5" y2="0" stroke="#273763" stroke-width="1" opacity="1"/></g><g class="mark-text role-axis-label" pointer-events="none"><text text-anchor="end" transform="translate(-13,329)" font-family="system-ui, -apple-system, sans-serif" font-size="16px" fill="#5d7290" opacity="1">0</text><text text-anchor="end" transform="translate(-13,264.2)" font-family="system-ui, -apple-system, sans-serif" font-size="16px" fill="#5d7290" opacity="1">1</text><text text-anchor="end" transform="translate(-13,199.4)" font-family="system-ui, -apple-system, sans-serif" font-size="16px" fill="#5d7290" opacity="1">2</text><text text-anchor="end" transform="translate(-13,134.6)" font-family="system-ui, -apple-system, sans-serif" font-size="16px" fill="#5d7290" opacity="1">3</text><text text-anchor="end" transform="translate(-13,69.79999999999998)" font-family="system-ui, -apple-system, sans-serif" font-size="16px" fill="#5d7290" opacity="1">4</text><text text-anchor="end" transform="translate(-13,5)" font-family="system-ui, -apple-system, sans-serif" font-size="16px" fill="#5d7290" opacity="1">5</text></g><g class="mark-rule role-axis-domain" pointer-events="none"><line transform="translate(0,324)" x2="0" y2="-324" stroke="#273763" stroke-width="1" opacity="1"/></g><g class="mark-text role-axis-title" pointer-events="none"><text text-anchor="middle" transform="translate(-29,162) rotate(-90) translate(0,-3)" font-family="system-ui, -apple-system, sans-serif" font-size="16px" font-weight="500" fill="#273763" opacity="1">Satisfaction Score</text></g></g><path class="foreground" aria-hidden="true" d="" pointer-events="none" display="none"/></g></g><g class="mark-symbol role-mark marks" role="graphics-object" aria-roledescription="symbol mark container"><path aria-label="Session Length (min): 2; Satisfaction Score: 2.1" role="graphics-symbol" aria-roledescription="point" transform="translate(67.3,187.92)" d="M5.477,0A5.477,5.477,0,1,1,-5.477,0A5.477,5.477,0,1,1,5.477,0" fill="#4d93e5" stroke-width="2" opacity="0.7"/><path aria-label="Session Length (min): 3; Satisfaction Score: 2.8" role="graphics-symbol" aria-roledescription="point" transform="translate(100.95,142.56000000000003)" d="M5.477,0A5.477,5.477,0,1,1,-5.477,0A5.477,5.477,0,1,1,5.477,0" fill="#4d93e5" stroke-width="2" opacity="0.7"/><path aria-label="Session Length (min): 5; Satisfaction Score: 3.5" role="graphics-symbol" aria-roledescription="point" transform="translate(168.25,97.20000000000002)" d="M5.477,0A5.477,5.477,0,1,1,-5.477,0A5.477,5.477,0,1,1,5.477,0" fill="#4d93e5" stroke-width="2" opacity="0.7"/><path aria-label="Session Length (min): 4; Satisfaction Score: 3.1" role="graphics-symbol" aria-roledescription="point" transform="translate(134.6,123.12)" d="M5.477,0A5.477,5.477,0,1,1,-5.477,0A5.477,5.477,0,1,1,5.477,0" fill="#4d93e5" stroke-width="2" opacity="0.7"/><path aria-label="Session Length (min): 7; Satisfaction Score: 4.2" role="graphics-symbol" aria-roledescription="point" transform="translate(235.54999999999998,51.839999999999975)" d="M5.477,0A5.477,5.477,0,1,1,-5.477,0A5.477,5.477,0,1,1,5.477,0" fill="#4d93e5" stroke-width="2" opacity="0.7"/><path aria-label="Session Length (min): 6; Satisfaction Score: 3.8" role="graphics-symbol" aria-roledescription="point" transform="translate(201.9,77.75999999999999)" d="M5.477,0A5.477,5.477,0,1,1,-5.477,0A5.477,5.477,0,1,1,5.477,0" fill="#4d93e5" stroke-width="2" opacity="0.7"/><path aria-label="Session Length (min): 8; Satisfaction Score: 4.5" role="graphics-symbol" aria-roledescription="point" transform="translate(269.2,32.39999999999999)" d="M5.477,0A5.477,5.477,0,1,1,-5.477,0A5.477,5.477,0,1,1,5.477,0" fill="#4d93e5" stroke-width="2" opacity="0.7"/><path aria-label="Session Length (min): 10; Satisfaction Score: 4.7" role="graphics-symbol" aria-roledescription="point" transform="translate(336.5,19.43999999999998)" d="M5.477,0A5.477,5.477,0,1,1,-5.477,0A5.477,5.477,0,1,1,5.477,0" fill="#4d93e5" stroke-width="2" opacity="0.7"/><path aria-label="Session Length (min): 12; Satisfaction Score: 4.4" role="graphics-symbol" aria-roledescription="point" transform="translate(403.8,38.87999999999996)" d="M5.477,0A5.477,5.477,0,1,1,-5.477,0A5.477,5.477,0,1,1,5.477,0" fill="#4d93e5" stroke-width="2" opacity="0.7"/><path aria-label="Session Length (min): 9; Satisfaction Score: 4.3" role="graphics-symbol" aria-roledescription="point" transform="translate(302.85,45.36000000000001)" d="M5.477,0A5.477,5.477,0,1,1,-5.477,0A5.477,5.477,0,1,1,5.477,0" fill="#4d93e5" stroke-width="2" opacity="0.7"/><path aria-label="Session Length (min): 15; Satisfaction Score: 4.8" role="graphics-symbol" aria-roledescription="point" transform="translate(504.75,12.960000000000012)" d="M5.477,0A5.477,5.477,0,1,1,-5.477,0A5.477,5.477,0,1,1,5.477,0" fill="#4d93e5" stroke-width="2" opacity="0.7"/><path aria-label="Session Length (min): 1; Satisfaction Score: 1.5" role="graphics-symbol" aria-roledescription="point" transform="translate(33.65,226.79999999999998)" d="M5.477,0A5.477,5.477,0,1,1,-5.477,0A5.477,5.477,0,1,1,5.477,0" fill="#4d93e5" stroke-width="2" opacity="0.7"/><path aria-label="Session Length (min): 11; Satisfaction Score: 4.6" role="graphics-symbol" aria-roledescription="point" transform="translate(370.15000000000003,25.920000000000023)" d="M5.477,0A5.477,5.477,0,1,1,-5.477,0A5.477,5.477,0,1,1,5.477,0" fill="#4d93e5" stroke-width="2" opacity="0.7"/><path aria-label="Session Length (min): 3; Satisfaction Score: 2.3" role="graphics-symbol" aria-roledescription="point" transform="translate(100.95,174.96)" d="M5.477,0A5.477,5.477,0,1,1,-5.477,0A5.477,5.477,0,1,1,5.477,0" fill="#4d93e5" stroke-width="2" opacity="0.7"/></g><g class="axis-domain-overlay"><g transform="translate(0.5,324.5)"><g class="mark-rule role-axis-domain" pointer-events="none"><line transform="translate(0,0)" x2="673" y2="0" stroke="#273763" stroke-width="1" opacity="1"/></g></g><g transform="translate(0.5,0.5)"><g class="mark-rule role-axis-domain" pointer-events="none"><line transform="translate(0,324)" x2="0" y2="-324" stroke="#273763" stroke-width="1" opacity="1"/></g></g></g><g class="mark-group role-title"><g transform="translate(-45,-34)"><path class="background" aria-hidden="true" d="M0,0h0v0h0Z" pointer-events="none"/><g><g class="mark-text role-title-text" role="graphics-symbol" aria-roledescription="title" aria-label="Title text 'Session Length vs Satisfaction'" pointer-events="none"><text text-anchor="start" transform="translate(0,13)" font-family="system-ui, -apple-system, sans-serif" font-size="16px" font-weight="500" fill="#273763" opacity="1">Session Length vs Satisfaction</text></g></g><path class="foreground" aria-hidden="true" d="" pointer-events="none" display="none"/></g></g></g><path class="foreground" aria-hidden="true" d="" display="none"/></g></g></g></svg>